<svg xmlns="http://www.w3.org/2000/svg" viewBox="0 0 1440 1024"><g fill="none" fill-rule="evenodd"><g transform="translate(598.787 129)"><path fill="#8CEBF3" fill-rule="nonzero" d="M20,3.55271368e-15 L400,0 C411.045695,-2.02906125e-15 420,8.954305 420,20 L420,288 C420,299.045695 411.045695,308 400,308 L20,308 C8.954305,308 1.3527075e-15,299.045695 0,288 L0,20 C-1.3527075e-15,8.954305 8.954305,5.58177493e-15 20,3.55271368e-15 Z"/><path fill="#EEFEFF" fill-rule="nonzero" d="M20,15 C17.2385763,15 15,17.2385763 15,20 L15,288 C15,290.761424 17.2385763,293 20,293 L400,293 C402.761424,293 405,290.761424 405,288 L405,20 C405,17.2385763 402.761424,15 400,15 L20,15 Z"/><path fill="#C6F6FB" fill-rule="nonzero" d="M76,41 L344,41 C355.045695,41 364,49.954305 364,61 L364,247 C364,258.045695 355.045695,267 344,267 L76,267 C64.954305,267 56,258.045695 56,247 L56,61 C56,49.954305 64.954305,41 76,41 Z"/><path fill="#EEFEFF" fill-rule="nonzero" d="M76,56 C73.2385763,56 71,58.2385763 71,61 L71,247 C71,249.761424 73.2385763,252 76,252 L344,252 C346.761424,252 349,249.761424 349,247 L349,61 C349,58.2385763 346.761424,56 344,56 L76,56 Z"/><polygon fill="#FFF" points="20 21 400 21 20 293"/></g><g transform="translate(307.23 774.116)"><path fill="#7FE4EC" d="M49,-6.39488462e-14 L114,-6.39488462e-14 L114,117.868958 L37,117.868958 L37,12 C37,5.372583 42.372583,-6.27314095e-14 49,-6.39488462e-14 Z" opacity=".548"/><path fill="#3BAFE7" d="M12,58.9344791 L172,58.9344791 L172,117.868958 L12,117.868958 C5.372583,117.868958 8.11624501e-16,112.496375 0,105.868958 L0,70.9344791 C-8.11624501e-16,64.3070621 5.372583,58.9344791 12,58.9344791 Z"/><path fill="#55C2F7" d="M114.08899,8.45545856e-13 L160.08899,8.47322212e-13 C166.716407,8.40218447e-13 172.08899,5.372583 172.08899,12 L172.08899,117.868958 L114.08899,117.868958 L114.08899,8.45545856e-13 Z" opacity=".548"/><polygon fill="#1F74AC" points="103.089 58.934 172.089 58.934 172.089 117.869 103.089 117.869"/></g><g transform="translate(324.85 444.22)"><path fill="#7FE4EC" d="M90.8930549,112.757242 C99.4554442,92.7333943 103.077993,78.7823527 101.760703,70.9041174 C99.7847668,59.0867645 95.3389109,64.0106616 90.8930549,56.1324263 C86.447199,48.254191 90.8930549,38.4063969 84.6029921,30.5281617 C78.3129292,22.6499264 70.6397112,31.6109596 67.1818232,27.5738234 C63.7239353,23.5366873 65.2058872,12.5777171 56.3141753,6.28885857 C47.4224634,4.08512871e-13 43.9645755,8.86301468 38.5307516,8.86301468 C33.0969276,8.86301468 28.6510717,-1.42890958e-13 19.7593598,-1.42108547e-13 C10.8676479,-1.41326137e-13 7.81773993e-13,10.8325735 7.81597009e-13,14.7716911 C7.81597009e-13,18.7108088 8.8917119,22.2555552 14.8195198,25.1118749 C20.7473278,27.9681946 28.6510717,24.7175038 32.6029436,27.5738234 C36.5548156,30.4301431 29.6390397,39.3911764 38.5307516,44.3150734 C47.4224634,49.2389704 56.3141753,46.2846322 60.1140307,51.2085293 C63.9138861,56.1324263 58.7840953,64.995441 62.7359673,71.3965071 C66.6878392,77.7975733 81.37563,78.7823527 82.989311,82.7214703 C84.6029921,86.660588 81.37563,92.5692644 82.989311,97.4931615 C84.0650984,100.77576 86.6996797,105.863786 90.8930549,112.757242 Z"/><path fill="#44D1D9" d="M83.2181128,88.2300109 C83.5045966,86.2037007 83.6374806,84.3037013 82.989311,82.7214703 C81.37563,78.7823527 66.6878392,77.7975733 62.7359673,71.3965071 C60.6197796,67.9688007 61.1077539,63.8351318 61.4342276,59.9783936 L61.6438652,59.9023379 C66.0810651,66.6763844 70.6820367,69.1990938 75.4467801,67.4704661 C82.5938951,64.8775246 86.950059,54.3442761 83.402057,44.6276817 C79.854055,34.9110873 65.4785839,40.1714628 62.4374394,31.8429533 C59.3962948,23.5144438 65.2191885,19.3059632 55.7202998,9.12837306 C53.6766422,6.93869483 51.7767161,5.2425996 50.0205215,4.04008735 C51.8066637,3.96786231 53.852113,4.54751087 56.3141753,6.28885857 C65.2058872,12.5777171 63.7239353,23.5366873 67.1818232,27.5738234 C70.6397112,31.6109596 78.3129292,22.6499264 84.6029921,30.5281617 C90.8930549,38.4063969 86.447199,48.254191 90.8930549,56.1324263 C95.3389109,64.0106616 99.7847668,59.0867645 101.760703,70.9041174 C102.317041,74.2313736 101.992275,78.6418181 100.786404,84.1354511 L83.2181128,88.2300109 Z"/><path fill="#1F74AC" fill-rule="nonzero" d="M91.7191725,124.610398 C91.6250954,125.154611 91.107659,125.519518 90.5634458,125.425441 C90.0192327,125.331364 89.6543253,124.813928 89.7484024,124.269715 C95.0730843,93.4677228 88.9475361,68.7178369 71.3908619,49.9215283 C53.7219053,31.005009 38.1276198,19.6956018 24.6579523,15.9739662 C24.1256134,15.8268823 23.8133025,15.2761012 23.9603864,14.7437623 C24.1074703,14.2114233 24.6582514,13.8991124 25.1905904,14.0461964 C39.0839218,17.8848893 54.9545597,29.3947149 72.8524506,48.5563328 C90.862624,67.8381613 97.1451633,93.2223592 91.7191725,124.610398 Z"/><path fill="#36ACB3" d="M77.774496,65.0572186 C53.165289,46.662029 38.0680699,37.7062275 32.4828388,38.1898139 C24.1049921,38.9151936 25.187788,45.4864298 23.7593168,44.9478248 C22.3308456,44.4092199 24.5824434,30.5286827 35.7475888,33.0294712 C43.191019,34.6966636 57.1999881,45.3725794 77.774496,65.0572186 Z"/><polygon fill="#E49A88" points="111.924 72.229 80.194 96.139 38.196 67.722 96.184 24.025"/><polygon fill="#EBBBA2" points="100.982 80.474 80.194 96.139 38.196 67.722 85.243 32.269"/></g><g transform="translate(418.59 371.443)"><polygon fill="#E49A88" points="9.59 0 95.899 0 95.899 176.803 9.59 176.803"/><polygon fill="#C7CCD3" points="26.03 30.153 108.229 30.153 108.229 176.803 26.03 176.803"/><polygon fill="#7FE4EC" points="9.59 0 9.59 176.803 2.74 176.803 2.74 0"/><polygon fill="#EBBBA2" points="16.44 0 16.44 176.803 9.59 176.803 9.59 0"/><polygon fill="#1F74AC" points="0 5.482 26.03 5.482 26.03 176.803 0 176.803"/><polygon fill="#484667" points="26.03 5.482 65.759 5.482 112.339 104.163 112.339 176.803 26.03 176.803"/><polygon fill="#7FE4EC" points="6.85 19.188 19.18 19.188 19.18 24.67 6.85 24.67"/><polygon fill="#7FE4EC" points="6.85 27.411 19.18 27.411 19.18 50.711 6.85 50.711"/><polygon fill="#44D1D9" points="6.85 142.539 19.18 142.539 19.18 153.504 6.85 153.504"/></g><g transform="translate(470.649 489.311)"><polygon fill="#1F74AC" points="0 21.929 86.309 21.929 86.309 58.934 0 58.934"/><polygon fill="#7FE4EC" points="15.07 0 76.77 0 76.77 21.929 15.07 21.929"/><polygon fill="#FFF" points="5.48 28.782 86.309 28.782 86.309 52.082 5.48 52.082"/><polygon fill="#484667" points="84.939 21.929 171.248 21.929 171.248 58.934 84.939 58.934"/><polygon fill="#D8C9C9" points="84.939 28.782 165.768 28.782 165.768 52.082 84.939 52.082"/><polygon fill="#FFF" points="21.97 5.482 76.77 5.482 76.77 16.447 21.97 16.447"/><polygon fill="#3BAFE7" points="71.239 0 132.939 0 132.939 21.929 71.239 21.929"/><polygon fill="#D8C9C9" points="71.239 5.482 126.038 5.482 126.038 16.447 71.239 16.447"/><path fill="#D9D9D9" fill-rule="nonzero" d="M21.9197164,45.5035016 C21.3895231,45.5035016 20.9597164,45.073695 20.9597164,44.5435016 C20.9597164,44.0133083 21.3895231,43.5835016 21.9197164,43.5835016 L84.9389012,43.5835016 C85.4690946,43.5835016 85.8989012,44.0133083 85.8989012,44.5435016 C85.8989012,45.073695 85.4690946,45.5035016 84.9389012,45.5035016 L21.9197164,45.5035016 Z"/><path fill="#D9D9D9" fill-rule="nonzero" d="M30.8246012,37.9653706 C30.2944079,37.9653706 29.8646012,37.5355639 29.8646012,37.0053706 C29.8646012,36.4751772 30.2944079,36.0453706 30.8246012,36.0453706 L53.4293088,36.0453706 C53.9595022,36.0453706 54.3893088,36.4751772 54.3893088,37.0053706 C54.3893088,37.5355639 53.9595022,37.9653706 53.4293088,37.9653706 L30.8246012,37.9653706 Z"/><path fill="#D9D9D9" fill-rule="nonzero" d="M48.6343708,11.9245542 C48.1041775,11.9245542 47.6743708,11.4947476 47.6743708,10.9645542 C47.6743708,10.4343609 48.1041775,10.0045542 48.6343708,10.0045542 L71.2390784,10.0045542 C71.7692718,10.0045542 72.1990784,10.4343609 72.1990784,10.9645542 C72.1990784,11.4947476 71.7692718,11.9245542 71.2390784,11.9245542 L48.6343708,11.9245542 Z"/></g><g transform="translate(734.376 399.95)"><polygon fill="#3C86B7" points="112.901 365.256 150.901 365.256 150.901 473.256 112.901 473.256"/><path fill="#45BDF6" d="M12.5,448 L115.5,448 C122.403559,448 128,453.596441 128,460.5 C128,467.403559 122.403559,473 115.5,473 L12.5,473 C5.59644063,473 8.45442189e-16,467.403559 0,460.5 C-8.45442189e-16,453.596441 5.59644063,448 12.5,448 Z"/><circle cx="25.031" cy="472.55" r="20.5" fill="#19608F"/><path fill="#3C86B7" d="M140.5,448 L213.5,448 C220.403559,448 226,453.596441 226,460.5 C226,467.403559 220.403559,473 213.5,473 L140.5,473 C133.596441,473 128,467.403559 128,460.5 C128,453.596441 133.596441,448 140.5,448 Z"/><circle cx="206.031" cy="472.55" r="20.5" fill="#19608F"/><polygon fill="#45BDF6" points="104.901 365.256 128.901 365.256 128.901 473.256 104.901 473.256"/><polygon fill="#3C86B7" points="118.901 268.256 140.901 268.256 140.901 376.256 118.901 376.256"/><polygon fill="#45BDF6" points="114.901 268.256 128.901 268.256 128.901 376.256 114.901 376.256"/><path fill="#3C86B7" d="M214.597637,0 L242.140108,0 C249.714299,-1.39135629e-15 255.854393,6.14009486 255.854393,13.7142857 L255.854393,225.285714 C255.854393,232.859905 249.714299,239 242.140108,239 L226.974664,239 L214.597637,0 Z"/><path fill="#67CDFF" d="M164.987598,0 L227.07061,0 L227.07061,239 L151.273312,239 L151.273312,13.7142857 C151.273312,6.14009486 157.413407,1.39135629e-15 164.987598,0 Z"/><path fill="#45BDF6" d="M167.380156,0.0496240602 C164.100241,13.7808922 165.478258,22.1500275 171.514208,25.1570301 C181.487049,30.1253213 225.505105,57.6631699 226.880669,102.412174 C227.013861,106.745066 227.230723,111.513634 227.531257,116.717876 L227.531257,239.049624 L151.531257,239.049624 L151.531257,13.7639098 C151.531257,6.18971892 157.671352,0.0496240602 165.245543,0.0496240602 L167.380156,0.0496240602 Z"/><polygon fill="#2872A3" points="27 293.439 27 266.576 128 266.576 128 293.439"/><polygon fill="#19608F" points="249.08 293.439 127.229 293.439 127.229 266.576 249.08 266.576"/><polygon fill="#3BAFE7" points="49.292 238.753 128.292 238.753 128.292 266.576 49.292 266.576"/><path fill="#3C86B7" d="M242.082192,238.753169 C249.656383,238.753169 255.796478,244.893263 255.796478,252.467454 L255.796478,267.535124 L127.22891,267.535124 L127.22891,238.753169 L242.082192,238.753169 Z"/></g><g transform="translate(639.068 261)"><path fill="#F2F0F0" d="M146.897979,133.098003 C190.673468,138.574606 126.900922,265.076651 122.993933,280.719382 C120.957173,288.874123 84.8215414,279.039801 26.0260018,260.823408 C9.63232288,255.744219 32.2860052,250.156411 52.1026354,253.643629 C65.3137223,255.968441 79.5591859,256.204668 94.8390262,254.352309 C107.743898,225.19681 115.40995,202.412707 117.837182,186 C124.071759,143.842391 127.802564,130.70904 146.897979,133.098003 Z"/><path fill="#DFE1E1" d="M163.441359,96 L138.280106,101.632469 C134.652835,109.990536 132.132417,116.666966 130.718852,121.661759 C129.305288,126.656552 128.305288,132.419424 127.718852,138.950376 L146.718852,137 L174.24789,107.99417 L163.441359,96 Z"/><path fill="#DCDCDC" d="M161.185603,146.986371 C166.679777,170.52951 148.277865,218.46889 135.081097,250.496363 C138.745301,219.423112 139.988496,195.36023 138.810686,178.307702 C137.669145,161.780258 145.12745,151.339814 161.185603,146.986371 L161.185603,146.986371 Z"/><polygon fill="#FBD3C0" points="153.605 552.587 172.238 521.353 216.497 574.439 193.522 591.953"/><path fill="#484667" d="M182.969252,587.598188 C181.231131,585.209024 179.522206,582.342962 177.842478,579 C184.492846,576.302799 189.452533,573.768228 192.721539,571.396288 C195.990545,569.024348 200.029707,565.189853 204.839026,559.892803 L207.843615,567.724579 L191.70582,586.734545 C187.619562,589.69947 184.707373,589.987351 182.969252,587.598188 Z"/><path fill="#A28582" d="M227.670002,584.751914 L165.29885,630.00745 C162.335635,624.222041 160.727519,618.587033 160.474501,613.102425 C160.221483,607.617817 166.221044,597.029616 178.473184,581.337821 C183.618057,583.272975 189.044075,582.170038 194.75124,578.029008 C200.458404,573.887979 204.000786,568.483584 205.378387,561.815825 L227.670002,584.751914 Z"/><path fill="#785452" d="M161.876192,620.817527 L221.198755,577.717162 L228.062317,584.463654 L165.691165,629.778948 C163.828284,626.803133 162.556626,623.815993 161.876192,620.817527 L161.876192,620.817527 Z"/><path fill="#CCB2B0" d="M160.841229,617.277842 C160.644416,615.884878 160.522173,614.493072 160.474501,613.102425 C160.313948,608.418888 164.419566,600.407659 172.791354,589.068737 C177.276253,594.844656 178.774541,599.001711 177.28622,601.539902 C175.78408,604.10166 170.302416,609.34764 160.841229,617.277842 Z"/><polygon fill="#FBD3C0" points="37.255 556.288 46.303 617.31 74.955 616.557 70.431 540.467"/><path fill="#484667" d="M41.996093,609 C41.996093,606.468713 42.2770708,603.563446 42.8390262,600.2842 C49.1841969,601.971724 54.2698257,602.815487 58.0959127,602.815487 C61.9219997,602.815487 67.5415649,601.971724 74.9546084,600.2842 L74.9546084,607.571816 L50.563304,612.940635 C44.85183,612.844832 41.996093,611.531287 41.996093,609 Z"/><path fill="#A28582" d="M79.8894595,630.870586 L4.49115429,630.870586 C4.49115429,625.092648 5.99912039,620.14013 9.0150526,616.013031 C12.0309848,611.885932 23.0894029,607.346124 42.1903069,602.393605 C45.2062391,606.520704 50.2327928,608.584253 57.2699679,608.584253 C64.3071431,608.584253 70.3390075,606.520704 75.3655612,602.393605 L79.8894595,630.870586 Z"/><path fill="#785452" d="M5.97627567,622.131618 L78.2688902,622.131618 L79.8337485,630.569242 L4.85095635,630.569242 C4.65110436,627.445447 5.0262108,624.632906 5.97627567,622.131618 Z"/><path fill="#CCB2B0" d="M7.44604497,618.599848 C8.12702815,617.297155 8.92468857,616.097205 9.83902622,615 C12.5896219,611.699285 20.3692799,608.260935 33.1780004,604.68495 C33.8356049,610.900087 32.7637929,614.530901 29.9625644,615.577393 C27.2657473,616.584878 19.7602409,617.592363 7.44604497,618.599848 L7.44604497,618.599848 Z"/><path fill="#17699E" d="M273.762578,299.279047 C279.53269,345.195842 273.616949,371.167676 256.015355,377.19455 C249.349747,379.476888 214.491057,384.739646 151.439285,392.982825 C153.119204,404.053608 159.469617,424.907304 170.490524,455.543915 C181.51143,486.180525 193.075336,520.081692 205.182239,557.247416 L164.495229,573.696336 C147.40706,539.477364 134.833071,515.411528 126.773262,501.49883 C98.4875416,452.67253 79.5689332,422.220809 77.8142282,412.266869 C74.0571922,390.954279 58.668066,322.52038 128.034507,313.91393 C174.278801,308.176297 222.854824,303.298003 273.762578,299.279047 Z"/><path fill="#17699E" d="M251.886173,318.432527 C253.455942,346.55794 247.438495,363.634083 233.833832,369.660957 C223.657458,374.169098 212.033194,373.938226 143.303027,373.950209 C127.866827,373.952901 102.446288,374.029869 67.0414093,374.181113 C67.887948,389.750538 69.3577299,414.360274 71.4507549,448.010322 C73.5437799,481.660369 76.1956181,530.377602 79.4062693,594.162021 L38.5922811,594.162021 C20.4213843,476.888094 9.39744604,405.318963 5.52046627,379.454628 C-0.295003401,340.658125 -13.8016827,316.925808 55.2681435,316.925808 C101.314694,316.925808 166.854038,317.428048 251.886173,318.432527 Z"/><path fill="#EFBEA6" d="M129.008907,105.65256 L143.378937,86.3978706 C151.89451,99.7691824 159.345637,107.257117 165.732317,108.861674 C172.118997,110.466232 177.973453,112.070789 183.295686,113.675347 C175.746843,128.247109 167.763493,138.944158 159.345637,145.766495 C150.927781,152.588832 142.385519,153.39111 133.718852,148.173331 C135.901122,133.732314 136.726145,125.442101 136.193922,123.302691 C135.661698,121.163281 133.266693,115.279904 129.008907,105.65256 Z"/><path fill="#484667" d="M197.412812,560.388436 C166.650692,495.634585 146.887497,457.575691 138.123225,446.211755 C129.479186,435.003714 114.336671,434.014128 92.6956808,443.242997 C84.3375097,428.098875 78.6372799,416.935806 77.8142282,412.266869 C74.0571922,390.954279 58.668066,322.52038 128.034507,313.91393 C174.278801,308.176297 222.854824,303.298003 273.762578,299.279047 C279.53269,345.195842 273.616949,371.167676 256.015355,377.19455 C249.349747,379.476888 214.491057,384.739646 151.439285,392.982825 C153.119204,404.053608 159.469617,424.907304 170.490524,455.543915 C181.51143,486.180525 193.075336,520.081692 205.182239,557.247416 L197.412812,560.388436 Z"/><path fill="#484667" d="M97.5301639,391.041207 C89.852441,395.538565 81.5216247,400.923505 72.5377151,407.196028 C69.7200499,400.75551 69.3577299,414.360274 71.4507549,448.010322 C73.5437799,481.660369 76.1956181,530.377602 79.4062693,594.162021 L71.3029977,594.162021 C62.2692003,498.549714 52.4891045,449.505565 41.9627102,447.029575 C34.7142066,445.324602 25.9040503,444.638314 15.5322411,444.970713 C10.656506,413.293459 7.31924768,391.454764 5.52046627,379.454628 C1.60532055,353.335678 -5.79577331,334.044389 10.8608579,324.225694 L92.5539585,331.99923 L97.5301639,391.041207 L97.5301639,391.041207 Z"/><path fill="#E6B197" d="M166.726129,109.112443 L166.472741,115.025523 C161.603066,113.016565 157.660263,111.007607 154.644331,108.998649 C150.120432,105.985212 146.819098,111.537612 138.056703,115.025523 C136.971573,115.457464 135.357412,115.577143 133.21422,115.384559 C132.108722,112.736032 130.706951,109.492033 129.008907,105.65256 L143.378937,86.3978706 C151.89451,99.7691824 159.345637,107.257117 165.732317,108.861674 C166.065032,108.945264 166.396303,109.028854 166.72613,109.112444 L166.726129,109.112443 Z"/><path fill="#44D1D9" d="M134.627277,130.113707 C135.67572,130.003657 138.624967,136.714382 143.475019,150.245882 L145.436541,123.559183 L163.448993,98.3030762 L170.712521,106.886823 C181.492162,105.64396 198.229459,108.560203 220.92441,115.635551 C254.966837,126.248573 277.99908,220.992846 282.417746,262.382597 C285.363524,289.975764 282.578322,309.328727 274.062141,320.441485 C239.741517,313.984905 214.873581,310.034692 199.458333,308.590847 C184.043085,307.147002 172.584565,307.694753 165.082773,310.234102 C161.82171,281.745284 157.294328,255.083773 151.500627,230.249568 C148.721189,218.335745 142.408635,203.402989 138.810686,191.717497 C136.209402,183.268991 132.551469,170.042065 127.836886,152.036717 C126.446633,147.004827 126.07866,143.50841 126.732966,141.547465 C129.275671,133.927016 133.87082,130.193109 134.627277,130.113707 Z"/><path fill="#358F94" fill-rule="nonzero" d="M152.807206,213.731776 C152.264986,213.836733 151.740346,213.482261 151.63539,212.940041 C151.530433,212.397821 151.884905,211.87318 152.427125,211.768224 C159.461451,210.406603 165.285213,210.406603 169.904472,211.792161 C170.433472,211.950836 170.733679,212.508306 170.575005,213.037306 C170.41633,213.566306 169.858859,213.866514 169.32986,213.707839 C165.058824,212.426731 159.549253,212.426731 152.807206,213.731776 Z"/><path fill="#ECECEC" d="M151.268439,115.384678 L166.727444,121.839315 C159.628408,138.07933 152.385867,147.727564 144.999819,150.784019 C137.613772,153.840474 132.812848,149.61721 130.597047,138.114229 L128.289009,137.775057 C130.821163,132.691516 134.009103,130.180518 134.627918,130.115478 C135.67636,130.005282 138.624644,136.715699 143.472769,150.24673 L145.437926,123.559377 L151.268439,115.384678 L151.268439,115.384678 Z"/><path fill="#26BAC2" d="M177.197337,106.624903 C187.789485,106.843783 202.369678,109.846563 220.937916,115.633241 C254.978396,126.24175 277.997301,220.984233 282.410222,262.373975 C285.35217,289.967136 282.564352,309.32076 274.046768,320.434846 C239.727525,313.982877 214.860489,310.036017 199.445661,308.594264 C184.030833,307.152511 172.572403,307.701841 165.070371,310.242255 C162.157798,286.308035 158.71179,264.371211 154.732347,244.431784 C180.749585,241.822031 195.657893,235.018044 199.45727,224.019823 C203.27467,212.969432 209.10629,179.870039 216.952131,124.721644 L173.662731,112.468227 L177.197337,106.624903 L177.197337,106.624903 Z"/><path fill="#229299" d="M240.436936,131.603002 C263.643784,162.876354 278.904968,229.477203 282.412393,262.374091 C285.35434,289.967253 282.566522,309.320876 274.048939,320.434962 C239.729695,313.982994 214.86266,310.036133 199.447832,308.594381 C184.033004,307.152628 172.574574,307.701958 165.072542,310.242372 C163.17819,294.675441 161.058181,279.953462 158.712516,266.076434 C190.040996,260.880568 209.561835,256.458659 217.275033,252.810707 C225.339369,248.996684 228.448134,220.95081 226.601326,168.673087 L240.436936,131.603002 L240.436936,131.603002 Z"/><path fill="#1B676B" fill-rule="nonzero" d="M173.778717,298.109057 C173.229202,298.053819 172.82851,297.56357 172.883747,297.014055 C172.938985,296.464539 173.429234,296.063848 173.978749,296.119085 C183.351659,297.061251 194.382387,297.781615 207.069623,298.279817 C219.832705,298.780998 235.855739,300.893596 255.145721,304.616071 C255.688001,304.720717 256.042774,305.245154 255.938127,305.787434 C255.833481,306.329714 255.309044,306.684486 254.766764,306.57984 C235.568189,302.875005 219.640651,300.774998 206.991147,300.278277 C194.265797,299.778578 183.195423,299.055625 173.778717,298.109057 Z"/><polygon fill="#FFF" points="145.437 123.559 163.696 95.247 180.638 106.262 159.177 142.687"/><path fill="#F8F8F8" d="M157.138876,106.203454 L162.957208,96.4848097 L163.843494,95.3424146 L180.638354,106.260681 L167.591346,128.402276 C166.246014,124.541482 164.920092,120.815501 163.613582,117.224332 C162.330056,113.696344 160.171821,110.022718 157.138876,106.203454 L157.138876,106.203454 Z"/><path fill="#FBD3C0" d="M100.053877,263.729567 L108.844295,279.818097 C97.0840158,276.748386 89.9746929,275.474605 87.5163268,275.996754 C86.0277059,276.312932 80.6924024,273.432836 72.797386,274.609975 C61.1351982,276.348796 45.6235459,280.070697 44.6505031,279.818097 C43.0187341,279.394493 62.3134909,257.280542 66.0010402,256.497318 C68.4594063,255.975169 79.8103518,258.385918 100.053877,263.729567 Z"/><path fill="#FFF" d="M230.362927,120.530733 C273.530256,134.31196 249.438874,257.018565 242.426656,270.368205 C235.918785,282.757684 184.024529,285.49852 86.7438874,278.590713 L88.1171031,260.169905 L205.220412,242.734665 C204.528349,212.113152 204.345428,190.485331 204.671648,177.851204 C205.636761,140.473471 211.341255,114.458039 230.362927,120.530733 Z"/><path fill="#C4C3C3" fill-rule="nonzero" d="M207.687604,246.734141 C207.117103,246.613037 206.752795,246.052381 206.873899,245.481881 C206.995003,244.91138 207.555659,244.547072 208.12616,244.668176 C212.472796,245.590864 216.494165,247.95037 220.179949,251.721045 C220.587621,252.138107 220.58001,252.806686 220.162948,253.214358 C219.745886,253.62203 219.077308,253.614418 218.669635,253.197357 C215.262345,249.71159 211.605106,247.565734 207.687604,246.734141 Z"/><path fill="#C4C3C3" fill-rule="nonzero" d="M101.635461,258.867758 C101.51474,258.297176 101.879426,257.736765 102.450007,257.616045 C103.020589,257.495325 103.581,257.86001 103.70172,258.430592 C104.087835,260.255557 104.222422,261.862064 104.098471,263.255202 C103.99714,264.394105 103.796881,265.664009 103.498352,267.066624 L101.72601,275.393842 C101.6046,275.964278 101.043749,276.328285 100.473313,276.206875 C99.9028778,276.085465 99.5388706,275.524613 99.6602805,274.954178 L101.432623,266.626959 C101.71433,265.303377 101.901497,264.116498 101.994781,263.068031 C102.098454,261.902814 101.981017,260.501026 101.635461,258.867758 Z"/><path fill="#FFF" d="M125.706369,146.200276 C126.309098,137.519949 127.150044,131.103124 128.229208,126.949801 C129.308373,122.796478 130.441259,120.14038 131.627866,118.981508 L132.417909,123.528034 C132.269854,126.791312 132.006507,129.091481 131.627866,130.428542 C131.249226,131.765604 130.407126,133.369013 129.101565,135.238771 L125.706369,146.200276 Z"/><path fill="#926664" d="M148.608542,94.0706306 L85.4874576,83.1249342 C77.7264553,80.5264673 71.258419,79.228846 66.0833487,79.2320703 C58.3207434,79.2369067 36.985601,59.7254318 46.7020822,38.2421336 C56.4185634,16.7588354 85.5259289,20.6456537 87.4689847,16.7394896 C89.4120405,12.8333254 87.4761981,5.02462447 104.944465,1.10878742 C122.412731,-2.80704962 124.346169,8.90660635 130.17173,3.04554647 C135.99729,-2.81551341 151.512883,12.7946338 151.508074,20.6045439 C151.504868,25.8111506 151.502464,29.7161056 151.500861,32.3194089 C154.083587,40.1277069 156.01983,47.285582 157.30959,53.7930343 C158.59935,60.3004866 155.699001,73.726352 148.608542,94.0706306 Z"/><path fill="#785452" d="M77.6163085,80.8263125 C76.9276235,78.3921985 76.6531418,75.8421176 76.7928635,73.1760698 C77.1998322,65.4106433 83.686153,49.9345934 96.2357198,45.384034 C102.386095,43.1538654 103.217052,34.0697779 97.3345354,24.4173825 C96.7862243,23.5176798 94.984184,8.21233286 94.1048263,7.11726006 C93.8144134,6.75560609 93.4629661,6.40268822 93.0504842,6.05850647 C95.4225675,4.16726915 99.0959516,2.41984046 104.944465,1.10878742 C122.412731,-2.80704962 124.346169,8.90660635 130.17173,3.04554647 C135.99729,-2.81551341 151.512883,12.7946338 151.508074,20.6045439 L151.500861,32.3194089 C154.083587,40.1277069 156.01983,47.285582 157.30959,53.7930343 C158.59935,60.3004866 155.699001,73.726352 148.608542,94.0706306 L85.4874576,83.1249342 C82.6965373,82.1905041 80.072821,81.4242969 77.6163085,80.8263125 L77.6163085,80.8263125 Z"/><path fill="#FBD3C0" d="M79.7571547,77.9514876 C75.7115199,73.3635121 75.9402257,68.9995452 80.4432722,64.8595871 C87.1978418,58.64965 91.4623302,53.9501955 102.052565,51.2232416 C107.378429,49.8518473 110.954513,57.6406951 122.632681,57.2247467 C125.1679,57.1344482 130.802362,58.1957842 139.536067,60.4087546 C142.842581,55.0405033 145.672028,54.1391632 148.024408,57.7047345 C150.376788,61.2703058 150.058473,65.4155535 147.069462,70.1404774 C147.769774,75.2337622 148.284963,81.0054925 148.615029,87.4556683 C149.110129,97.130932 146.620943,109.575078 130.679532,118.362809 C120.051925,124.221296 103.077799,110.750856 79.7571547,77.9514876 Z"/><ellipse cx="116.812" cy="78.091" fill="#583C2F" rx="2.808" ry="2.814"/><path fill="#8E5E49" fill-rule="nonzero" d="M87.7996193,85.988215 C87.7049636,86.5636951 87.1617112,86.9534803 86.5862311,86.8588246 C86.010751,86.7641689 85.6209658,86.2209165 85.7156215,85.6454364 C86.3727767,81.6501174 94.5136283,79.1991419 97.7871362,82.0172582 C98.2291258,82.3977608 98.2789709,83.0645225 97.8984683,83.5065121 C97.5179657,83.9485018 96.851204,83.9983469 96.4092144,83.6178443 C94.3369567,81.8338671 88.1779335,83.6881713 87.7996193,85.988215 Z"/><ellipse cx="93.562" cy="90.889" fill="#583C2F" rx="2.781" ry="2.814"/><path fill="#8E5E49" fill-rule="nonzero" d="M118.935257,70.239767 C114.462645,68.8909647 110.254775,71.4516024 109.712129,75.1699995 C109.62791,75.7470992 109.091805,76.1466578 108.514705,76.0624385 C107.937605,75.9782192 107.538047,75.4421141 107.622266,74.8650143 C108.354176,69.8497141 113.855547,66.5019352 119.545046,68.2177134 C120.103421,68.386102 120.419567,68.9752602 120.251178,69.5336349 C120.08279,70.0920096 119.493631,70.4081557 118.935257,70.239767 Z"/><path fill="#8E5E49" fill-rule="nonzero" d="M102.16491,92.2564741 C101.758332,91.8383458 101.767696,91.1697891 102.185824,90.763211 C102.603952,90.3566329 103.272509,90.3659963 103.679087,90.7841246 C104.538043,91.6674818 104.833264,92.9292705 105.187779,95.9006596 C105.194868,95.9600719 105.293699,96.7991684 105.323547,97.0451052 C105.684899,100.022512 106.103369,101.508162 106.818297,102.05058 C107.660298,102.689409 108.449307,102.603663 109.91426,101.895294 C110.032952,101.837902 110.441552,101.635888 110.509883,101.602583 C110.754059,101.483571 110.941753,101.397164 111.124677,101.322106 C111.669873,101.098397 112.126557,100.99603 112.598854,101.054422 C113.17766,101.125981 113.588865,101.653206 113.517306,102.232012 C113.445747,102.810818 112.918522,103.222023 112.339716,103.150464 C112.220938,103.135779 112.085543,103.191335 110.83366,103.796675 C108.72733,104.815177 107.188368,104.982424 105.541744,103.733125 C104.162982,102.687053 103.66714,100.926718 103.226932,97.29956 C103.196546,97.0491929 103.097349,96.2069906 103.090653,96.150867 C102.806194,93.766663 102.544092,92.6464278 102.16491,92.2564741 Z"/><path fill="#8E5E49" fill-rule="nonzero" d="M123.037639,104.052394 C123.50717,103.70645 124.168243,103.806636 124.514188,104.276167 C124.860133,104.745698 124.759946,105.406772 124.290415,105.752716 C124.12236,105.876537 122.814563,106.843569 122.49289,107.079001 C121.919276,107.49883 121.490807,107.803087 121.075242,108.083029 C120.863697,108.225534 120.656721,108.360765 120.447647,108.492917 C119.51063,109.08519 118.477713,109.650395 116.762879,110.512536 C116.241813,110.774505 115.607038,110.564465 115.34507,110.043399 C115.083101,109.522333 115.293141,108.887559 115.814207,108.62559 C117.472784,107.791732 118.450682,107.256634 119.319211,106.707651 C119.510641,106.586652 119.700462,106.462629 119.895272,106.331397 C120.284421,106.06925 120.692185,105.779696 121.245519,105.37471 C121.562246,105.142897 122.865907,104.178924 123.037639,104.052394 Z"/><path fill="#BFA194" fill-rule="nonzero" d="M67.1654504,72.3106364 C67.699424,72.4516706 68.0179642,72.9988726 67.87693,73.5328462 C67.7358957,74.0668197 67.1886938,74.38536 66.6547202,74.2443258 C58.0634032,71.9751687 52.8216782,67.3178825 51.0806864,60.316581 C49.3680632,53.4293624 50.6317933,46.413126 54.837882,39.3173064 C55.1194955,38.8422145 55.7329263,38.6853693 56.2080182,38.9669828 C56.6831101,39.2485963 56.8399553,39.8620272 56.5583418,40.3371191 C52.6095036,46.9989481 51.441914,53.4814121 53.0215787,59.8339454 C54.5728747,66.0723959 59.2371182,70.2165883 67.1654504,72.3106364 Z"/><path fill="#BFA194" fill-rule="nonzero" d="M71.2020206,63.6964247 C71.7359942,63.8374589 72.0545345,64.3846609 71.9135002,64.9186344 C71.772466,65.452608 71.225264,65.7711483 70.6912904,65.630114 C62.0999734,63.360957 56.8582484,58.7036708 55.1172566,51.7023693 C53.4046335,44.8151507 54.6683635,37.7989143 58.8744522,30.7030947 C59.1560657,30.2280028 59.7694966,30.0711576 60.2445885,30.3527711 C60.7196803,30.6343846 60.8765255,31.2478155 60.5949121,31.7229073 C56.6460738,38.3847364 55.4784843,44.8672004 57.0581489,51.2197337 C58.6094449,57.4581842 63.2736884,61.6023766 71.2020206,63.6964247 Z"/><path fill="#60B5BC" fill-rule="nonzero" d="M220.320241,318.793489 C220.037677,318.318961 220.193294,317.705218 220.667821,317.422654 C221.142349,317.14009 221.756092,317.295707 222.038656,317.770235 C226.265076,324.86793 230.08156,329.767413 233.453706,332.456901 C236.840611,335.158161 242.726047,338.126333 251.085143,341.330871 C251.600833,341.528565 251.858619,342.106877 251.660924,342.622566 C251.46323,343.138256 250.884918,343.396041 250.369229,343.198347 C241.834642,339.926534 235.788737,336.877433 232.206644,334.020498 C228.60979,331.151792 224.659124,326.08005 220.320241,318.793489 Z"/></g><g transform="translate(557.587 457.788)"><polygon fill="#AFAFAF" points="30.88 82.234 226.787 82.234 226.787 90.458 30.88 90.458"/><path fill="#E6E6E6" d="M0.91766188,7.47934751 C0.669776931,6.84390113 0.542572584,6.16779863 0.542572584,5.48571429 C0.542572584,2.45603794 2.99861053,1.44472093e-15 6.02828687,8.8817842e-16 L108.973016,1.77635684e-15 C113.450051,-6.99887372e-15 117.477983,2.72026965 119.150301,6.87324439 L152.807997,90.4575725 L33.287117,90.4575725 L0.91766188,7.47934751 Z"/><ellipse cx="76.089" cy="47.97" fill="#FFF" rx="9.59" ry="9.594"/></g><g transform="translate(908.068 527.591)"><path fill="#44D1D9" d="M119.847923,277.498399 C102.494814,252.828152 94.5032509,230.899043 95.8732332,211.711074 C97.9282066,182.929119 114.367994,191.152534 119.847923,182.929119 C125.327852,174.705703 110.258047,148.44663 119.847923,123.99464 C129.437799,99.542649 141.767639,117.141793 149.987533,110.974231 C158.207427,104.80667 153.412489,73.2835763 169.167285,63.6895913 C184.922081,54.0956063 233.556452,58.2073142 236.296417,63.6895913 C239.036381,69.1718684 226.706541,91.1009769 219.856629,100.694962 C213.006718,110.288947 195.072944,120.737662 189.593015,127.590508 C184.113085,134.443355 199.306895,153.461879 186.977055,167.852857 C174.647214,182.243834 155.467462,189.781965 149.987533,200.746519 C144.507604,211.711074 162.317374,221.305059 153.412489,240.493028 C147.475899,253.285008 136.28771,265.620132 119.847923,277.498399 Z"/><path fill="#36ACB3" d="M113.137108,187.170508 C118.754445,204.523076 124.960594,212.011971 131.755556,209.637193 C142.28868,205.955961 139.860013,194.991407 143.342687,184.712137 C146.825361,174.432868 172.855024,168.950591 176.964971,156.615467 C181.074918,144.280344 179.704936,130.574651 185.184865,122.351235 C190.664794,114.12782 218.06444,102.728566 222.174386,94.7224998 C224.261709,90.6564521 228.734234,82.8364526 235.591962,71.2625013 C232.717841,80.2170314 224.83814,93.7178592 219.856629,100.694962 C213.006718,110.288947 195.072944,120.737662 189.593015,127.590508 C184.113085,134.443355 199.306895,153.461879 186.977055,167.852857 C174.647214,182.243834 155.467462,189.781965 149.987533,200.746519 C144.507604,211.711074 162.317374,221.305059 153.412489,240.493028 C147.475899,253.285008 136.28771,265.620132 119.847923,277.498399 C102.494814,252.828152 94.5032509,230.899043 95.8732332,211.711074 C97.3466843,191.073919 106.215563,189.461727 113.137108,187.170508 L113.137108,187.170508 Z"/><path fill="#87F3FC" d="M72.1013942,282.782952 C69.9185928,271.778772 68.9075654,263.875053 69.068312,259.071795 C69.3094318,251.866909 76.3273889,245.67006 76.0997465,239.753088 C75.8721041,233.836115 57.2020811,225.582253 55.0995871,215.336567 C52.9970931,205.090881 63.9002787,195.932552 61.292725,187.690833 C58.6851713,179.449114 45.6926242,179.095802 36.4501756,168.439179 C27.207727,157.782556 40.4847809,149.343071 36.6949613,143.733274 C32.9051417,138.123477 21.0588909,138.626302 14.6943468,132.079382 C8.32980275,125.532462 -1.56913177,116.679519 0.30591744,111.527864 C2.18096665,106.376208 21.4983366,97.363333 33.0845967,101.580387 C44.6708568,105.797441 46.2451262,119.497192 53.3256185,122.074281 C60.4061108,124.651369 69.1307393,114.70011 77.7234561,127.141856 C86.316173,139.583603 79.1685785,153.213117 81.7526396,160.132928 C84.3367007,167.052739 98.6007323,158.972485 103.04684,172.258971 C107.492948,185.545457 97.0121949,196.316069 99.0552265,208.727906 C101.098258,221.139744 109.2352,216.808701 106.184777,233.200791 C104.151161,244.12885 92.7900337,260.656237 72.1013942,282.782952 Z"/><path fill="#44D1D9" d="M73.7757783,247.065778 C75.1136169,244.5516 76.191184,242.129766 76.0997465,239.753088 C75.8721041,233.836115 57.2020811,225.582253 55.0995871,215.336567 C53.9737228,209.850105 56.57723,204.675443 58.8384744,199.78636 L59.1478438,199.786318 C61.7051983,210.74997 66.4996219,216.231313 73.5311148,216.230344 C84.078354,216.228892 94.7685161,204.519292 94.770497,190.129035 C94.772478,175.738779 73.5366802,175.800576 73.5383782,163.466071 C73.5400761,151.131565 83.13081,148.389243 75.5979824,130.573773 C73.9773169,126.740828 72.3089903,123.621567 70.5930025,121.215991 C72.9547976,121.968644 75.3441837,123.69681 77.7234561,127.141856 C86.316173,139.583603 79.1685785,153.213117 81.7526396,160.132928 C84.3367007,167.052739 98.6007323,158.972485 103.04684,172.258971 C107.492948,185.545457 97.0121949,196.316069 99.0552265,208.727906 C101.098258,221.139744 109.2352,216.808701 106.184777,233.200791 C105.325909,237.816095 102.803321,243.430135 98.6170126,250.04291 L73.7757783,247.065778 L73.7757783,247.065778 Z"/><path fill="#1F74AC" fill-rule="nonzero" d="M67.1660363,298.463143 C66.9027646,298.923353 66.316267,299.083002 65.8560573,298.819731 C65.3958475,298.556459 65.2361977,297.969961 65.4994695,297.509752 C87.1638888,259.639462 90.9783829,224.224786 76.9926253,191.184015 C62.9456971,157.99873 47.9683378,135.751686 32.1123072,124.441993 C31.6806646,124.134114 31.5803347,123.534613 31.8882141,123.10297 C32.1960935,122.671328 32.7955945,122.570998 33.227237,122.878877 C49.427528,134.434122 64.5881119,156.953324 78.7607486,190.435589 C92.9945559,224.062368 89.1130939,260.09879 67.1660363,298.463143 Z"/><path fill="#1F74AC" fill-rule="nonzero" d="M122.707836,260.409507 C122.655454,260.937107 122.185287,261.322347 121.657687,261.269965 C121.130088,261.217584 120.744848,260.747416 120.797229,260.219816 C125.061817,217.266013 135.232003,180.166644 151.313892,148.926097 C167.396569,117.684021 186.825146,92.9647993 209.602558,74.7777431 C210.016879,74.4469208 210.620937,74.5146097 210.951759,74.9289305 C211.282581,75.3432512 211.214892,75.9473089 210.800572,76.2781311 C188.245936,94.2873073 168.985096,118.793115 153.020984,149.804868 C137.056086,180.818149 126.949668,217.6849 122.707836,260.409507 Z"/><path fill="#7FE4EC" d="M89.2861055,345.986779 C125.26457,260.866595 151.600114,210.402534 168.292734,194.594596 C193.331666,170.88269 208.076905,205.626122 205.020797,209.260623 C201.96469,212.895123 200.127231,193.206153 179.585357,203.849412 C165.890775,210.944918 135.791024,258.32404 89.2861055,345.986779 Z"/><path fill="#1F74AC" d="M124.352935,265.328702 C118.715113,159.988156 111.026572,94.2735823 101.287312,68.1849819 C86.6784223,29.0520815 67.366389,12.4586696 67.366389,15.8850928 C67.366389,19.311516 87.3978076,35.9555656 97.5812767,68.1849819 C117.711686,131.895232 110.358642,156.34821 121.199823,265.328702 C121.257463,265.908126 122.3085,265.908126 124.352935,265.328702 Z"/><path fill="#9FF8FF" d="M80.5904349,29.4938687 C77.2334157,25.9874461 76.0207929,22.2903046 76.9525664,18.4024442 C77.8843398,14.5145839 80.5376759,11.6046069 84.9125746,9.67251339 C87.7245242,14.7988512 88.742291,18.8601391 87.9658747,21.8563771 C87.1894585,24.8526152 84.7309786,27.3984457 80.5904349,29.4938687 Z"/><path fill="#5CC5F7" d="M80.474277,29.3715566 C81.832841,26.404895 82.9013693,23.1870317 83.6798619,19.7179668 C84.361868,16.6788582 84.8021242,13.3841276 85.0006305,9.833775 C87.745717,14.8840918 88.7341318,18.8916259 87.9658747,21.8563771 C87.1894585,24.8526152 84.7309786,27.3984457 80.5904349,29.4938687 C80.551426,29.4531237 80.5127067,29.412353 80.474277,29.3715566 L80.474277,29.3715566 Z"/><path fill="#9FF8FF" d="M69.2533727,16.8818935 C64.399456,16.9456875 60.8685311,15.3110993 58.660598,11.9781289 C56.4526649,8.6451585 56.1340133,4.72003184 57.7046433,0.202748909 C63.3715545,1.64237308 67.0359077,3.66781731 68.6977029,6.27908162 C70.3594981,8.89034592 70.5447214,12.4246166 69.2533727,16.8818935 Z"/><path fill="#5CC5F7" d="M69.0846998,16.8834294 C67.8415593,13.8665803 66.2168977,10.8905306 64.2107148,7.9552806 C62.4531786,5.38382582 60.3438192,2.81484196 57.8826366,0.248329017 C63.448349,1.68500761 67.0533711,3.69525848 68.6977029,6.27908162 C70.3594981,8.89034592 70.5447214,12.4246166 69.2533727,16.8818935 C69.1969698,16.8826348 69.1407455,16.8831468 69.0846998,16.8834294 L69.0846998,16.8834294 Z"/><path fill="#9FF8FF" d="M95.6713393,54.9207389 C92.7466716,49.3280041 92.6892792,44.1965109 95.4991622,39.5262595 C98.3090452,34.856008 102.955946,32.0038089 109.439865,30.9696621 C110.989794,38.4567132 110.644088,43.9902449 108.402747,47.570257 C106.161407,51.1502692 101.917604,53.6004298 95.6713393,54.9207389 Z"/><path fill="#5CC5F7" d="M95.5705461,54.7259615 C98.5568385,51.3753006 101.269181,47.6076789 103.707573,43.4230964 C105.843751,39.7571516 107.770593,35.6844708 109.4881,31.2050539 C110.982318,38.5727987 110.620534,44.0278664 108.402747,47.570257 C106.161407,51.1502692 101.917604,53.6004298 95.6713393,54.9207389 C95.6373544,54.8557508 95.6037567,54.790825 95.5705461,54.7259615 Z"/><path fill="#9FF8FF" d="M106.864445,85.3067498 C103.842616,79.7659093 103.695675,74.6361994 106.423623,69.91762 C109.151571,65.1990406 113.747986,62.2661763 120.212869,61.119027 C121.893229,68.5778878 121.644149,74.1166101 119.46563,77.7351938 C117.287111,81.3537775 113.086715,83.8776295 106.864445,85.3067498 Z"/><path fill="#5CC5F7" d="M106.760267,85.1137612 C109.687628,81.7114926 112.333803,77.8971079 114.698793,73.6706069 C116.770666,69.967939 118.626136,65.8622504 120.265205,61.3535411 C121.887781,68.6940861 121.621256,74.154637 119.46563,77.7351938 C117.287111,81.3537775 113.086715,83.8776295 106.864445,85.3067498 C106.829331,85.2423648 106.794605,85.1780352 106.760267,85.1137612 L106.760267,85.1137612 Z"/><path fill="#9FF8FF" d="M79.4605853,32.6038319 C75.7621368,35.4067549 72.3962328,36.5004034 69.3628734,35.8847774 C66.329514,35.2691514 63.1254122,32.5740372 59.7505679,27.799435 C63.4049514,24.7142762 67.1835673,23.6051235 71.0864157,24.4719769 C74.9892641,25.3388302 77.780654,28.0494486 79.4605853,32.6038319 Z"/><path fill="#5CC5F7" d="M79.4015722,32.4458118 C79.4213934,32.4982362 79.4410644,32.5509096 79.4605853,32.6038319 C75.7621368,35.4067549 72.3962328,36.5004034 69.3628734,35.8847774 C66.3613909,35.2756208 63.1927356,32.6304522 59.8569077,27.9492716 C63.1349629,29.3272275 66.2892427,30.3758427 69.3197472,31.0951172 C72.7789909,31.9161507 76.1395992,32.3663822 79.4015722,32.4458118 Z"/><path fill="#9FF8FF" d="M93.4232432,56.3923444 C88.8357904,60.8324251 84.4314109,62.9805845 80.2101045,62.8368227 C75.9887982,62.6930608 71.2079764,59.8853523 65.8676389,54.413697 C70.3507468,49.6165724 75.313841,47.3590466 80.7569215,47.6411195 C86.2000021,47.9231923 90.4221093,50.8402673 93.4232432,56.3923444 Z"/><path fill="#5CC5F7" d="M93.3181282,56.1998649 C93.3533314,56.2636689 93.3883697,56.3278288 93.4232432,56.3923444 C88.8357904,60.8324251 84.4314109,62.9805845 80.2101045,62.8368227 C76.0331589,62.6945716 71.3083956,59.9440692 66.0358147,54.5853155 C70.7098373,55.6662958 75.1637193,56.3462853 79.3974607,56.6252841 C84.2301685,56.9437541 88.870391,56.8019477 93.3181282,56.1998649 Z"/><path fill="#9FF8FF" d="M103.265095,88.0641495 C101.484538,82.0094551 97.9616511,78.2785606 92.6964347,76.8714659 C87.4312182,75.4643712 82.1072287,76.6412443 76.7244662,80.4020854 C80.8097312,86.8642415 84.9018465,90.6042658 89.0008123,91.6221583 C93.0997781,92.6400508 97.8545388,91.4540479 103.265095,88.0641495 Z"/><path fill="#5CC5F7" d="M103.202925,87.8552562 C103.224093,87.9249851 103.245026,87.9950278 103.265724,88.0653842 C97.8553731,91.4546534 93.1006124,92.6401484 89.0014415,91.6218692 C84.9453478,90.6142908 80.8956936,86.94156 76.8524787,80.6036767 C81.1996143,82.6328189 85.4147905,84.2239631 89.4980074,85.3771094 C94.1588952,86.6933966 98.727201,87.5194455 103.202925,87.8552562 L103.202925,87.8552562 Z"/><path fill="#9FF8FF" d="M114.232192,120.428081 C110.832764,115.111465 110.32945,110.003882 112.72225,105.105333 C115.115049,100.206784 119.495718,96.9590945 125.864255,95.3622652 C128.059042,102.686331 128.195796,108.229689 126.274517,111.992341 C124.353238,115.754993 120.339129,118.566906 114.232192,120.428081 Z"/><path fill="#5CC5F7" d="M114.116299,120.239902 C116.799198,116.641718 119.172849,112.652037 121.237252,108.270859 C123.045793,104.432684 124.610345,100.207565 125.93091,95.5955034 C128.061584,102.804982 128.176616,108.270823 126.276009,111.993027 C124.355216,115.754762 120.341108,118.56547 114.233684,120.425153 C114.194165,120.363374 114.155036,120.301624 114.116299,120.239902 L114.116299,120.239902 Z"/><path fill="#9FF8FF" d="M116.707115,150.319485 C114.180885,144.53631 114.482427,139.412841 117.611742,134.949078 C120.741056,130.485315 125.575624,127.963191 132.115446,127.382707 C133.137966,134.960089 132.406236,140.456602 129.920254,143.872246 C127.434273,147.28789 123.029893,149.43697 116.707115,150.319485 Z"/><path fill="#5CC5F7" d="M116.621295,150.115914 C119.834043,146.981728 122.802594,143.412488 125.526948,139.408192 C127.913646,135.90019 130.11989,131.97184 132.145682,127.623142 C133.122313,135.07717 132.380883,140.493713 129.921394,143.87277 C127.435784,147.287713 123.031405,149.435872 116.708256,150.317248 C116.678887,150.250047 116.6499,150.182936 116.621295,150.115914 L116.621295,150.115914 Z"/><path fill="#9FF8FF" d="M118.512842,181.810461 C117.136035,175.651305 118.409222,170.67953 122.332403,166.895136 C126.255585,163.110742 131.482366,161.557831 138.012747,162.236404 C137.571268,169.869757 135.804646,175.125603 132.712882,178.003942 C129.621119,180.88228 124.887772,182.15112 118.512842,181.810461 Z"/><path fill="#5CC5F7" d="M118.466568,181.594913 C122.21832,179.131332 125.813374,176.194095 129.25173,172.783201 C132.263935,169.795054 135.179209,166.359849 137.997552,162.477589 C137.533944,169.981016 135.772611,175.15657 132.713556,178.004251 C129.622012,180.882175 124.888665,182.150472 118.513515,181.80914 C118.497508,181.737571 118.481859,181.666161 118.466568,181.594913 Z"/><path fill="#9FF8FF" d="M110.384112,120.989958 C109.245926,114.782233 106.132156,110.703377 101.042802,108.75339 C95.953447,106.803402 90.5356588,107.417082 84.789437,110.594427 C88.1771325,117.448393 91.8560593,121.595854 95.8262173,123.036813 C99.7963754,124.477772 104.649007,123.795486 110.384112,120.989958 Z"/><path fill="#5CC5F7" d="M110.343983,120.775127 C110.357747,120.846686 110.371244,120.918533 110.384474,120.990668 C104.649487,123.795835 99.7968553,124.477828 95.8265793,123.036647 C91.898026,121.610611 88.254461,117.534695 84.8958845,110.808901 C89.0071029,113.281326 93.0328681,115.30436 96.9731801,116.878002 C101.470946,118.674273 105.92788,119.973315 110.343983,120.775127 Z"/><path fill="#9FF8FF" d="M113.59749,150.162815 C112.89492,143.890782 110.07314,139.604563 105.132149,137.304158 C100.191157,135.003753 94.743777,135.23785 88.7900072,138.006448 C91.6915468,145.080132 95.0723235,149.47423 98.9323373,151.188741 C102.792351,152.903253 107.680735,152.561277 113.59749,150.162815 Z"/><path fill="#5CC5F7" d="M113.572315,149.94533 C113.581053,150.017675 113.589505,150.090289 113.597672,150.163171 C107.680976,152.561452 102.792592,152.903281 98.9325187,151.188658 C95.1130104,149.492054 91.7626425,145.171905 88.881415,138.228211 C92.810151,140.981398 96.6849899,143.280327 100.505932,145.124998 C104.867439,147.230642 109.2229,148.83742 113.572315,149.94533 L113.572315,149.94533 Z"/><path fill="#9FF8FF" d="M114.471972,182.258083 C113.988627,175.965341 111.318089,171.583213 106.460356,169.111697 C101.602623,166.640182 96.1503946,166.683943 90.1036704,169.242982 C92.7566802,176.413663 95.9821113,180.923122 99.7799637,182.771359 C103.577816,184.619596 108.475152,184.448504 114.471972,182.258083 Z"/><path fill="#5CC5F7" d="M114.454324,182.039668 C114.460532,182.112275 114.466445,182.185139 114.472063,182.258261 C108.475273,184.448592 103.577937,184.61961 99.7800545,182.771318 C96.0220836,180.942448 92.8245276,176.508005 90.1873867,169.467988 C94.0176446,172.356608 97.8098916,174.789367 101.564128,176.766263 C105.849493,179.022839 110.146225,180.780641 114.454324,182.039668 Z"/><path fill="#434454" d="M53.6665663,237.479055 C78.782908,223.316506 98.4193206,216.235231 112.575804,216.235231 C126.732288,216.235231 148.195343,223.316506 176.964971,237.479055 L53.6665663,237.479055 Z"/><path fill="#17699E" d="M120.369309,216.840554 C128.765839,221.354757 134.387898,225.036263 137.235485,227.88507 C139.437061,230.087589 141.472795,233.285584 143.342687,237.479055 L53.6665663,237.479055 C78.782908,223.316506 98.4193206,216.235231 112.575804,216.235231 C114.965445,216.235231 117.56328,216.437005 120.369309,216.840554 L120.369309,216.840554 Z"/><polygon fill="#EBBBA2" points="70.106 362.201 155.045 362.201 190.665 227.885 34.487 227.885"/><polygon fill="#EED2B3" points="45.754 270.373 41.756 255.296 50.927 255.296 50.927 270.373 45.754 270.373"/><polygon fill="#FBDBB7" points="51.57 292.302 47.572 277.226 70.106 277.226 70.106 292.302"/><polygon fill="#FBDBB7" points="57.777 255.296 87.916 255.296 87.916 270.373 57.777 270.373"/><polygon fill="#EED2B3" points="124.906 236.108 155.045 236.108 155.045 251.185 124.906 251.185"/><polygon fill="#E49A88" points="148.751 227.885 190.665 227.885 155.045 362.201 124.906 362.201"/><polygon fill="#D08775" points="53.667 347.125 129.016 347.125 129.016 362.201 53.667 362.201"/><polygon fill="#BE715D" points="172.855 347.125 172.855 362.201 129.016 362.201 129.016 347.125"/></g><g fill="#C6F6FB" transform="translate(1049.787 362)"><path d="M9,0 L37,0 C41.9705627,-9.13077564e-16 46,4.02943725 46,9 L46,26 C46,30.9705627 41.9705627,35 37,35 L9,35 C4.02943725,35 6.08718376e-16,30.9705627 0,26 L0,9 C-6.08718376e-16,4.02943725 4.02943725,9.13077564e-16 9,0 Z"/><path d="M9,43 L71,43 C75.9705627,43 80,47.0294373 80,52 L80,69 C80,73.9705627 75.9705627,78 71,78 L9,78 C4.02943725,78 6.08718376e-16,73.9705627 0,69 L0,52 C-6.08718376e-16,47.0294373 4.02943725,43 9,43 Z"/></g><g fill="#C6F6FB" transform="translate(414.787 212)"><path d="M9,0 L34,0 C38.9705627,-9.13077564e-16 43,4.02943725 43,9 L43,26 C43,30.9705627 38.9705627,35 34,35 L9,35 C4.02943725,35 2.38507522e-15,30.9705627 1.77635684e-15,26 L0,9 C-6.08718376e-16,4.02943725 4.02943725,9.13077564e-16 9,0 Z"/><path d="M40,49 L76,49 C80.9705627,49 85,53.0294373 85,58 L85,75 C85,79.9705627 80.9705627,84 76,84 L40,84 C35.0294373,84 31,79.9705627 31,75 L31,58 C31,53.0294373 35.0294373,49 40,49 Z"/><path d="M63,0 L125,0 C129.970563,-9.13077564e-16 134,4.02943725 134,9 L134,26 C134,30.9705627 129.970563,35 125,35 L63,35 C58.0294373,35 54,30.9705627 54,26 L54,9 C54,4.02943725 58.0294373,9.13077564e-16 63,0 Z"/></g><g transform="translate(326.8 548.246)"><polygon fill="#FBE8DE" points="190.428 37.005 210.977 37.005 210.977 344.013 190.428 344.013"/><polygon fill="#F5CCB6" points="190.428 37.005 210.977 37.005 210.977 127.463 190.428 127.463"/><polygon fill="#EBBBA2" points="210.977 37.005 231.527 37.005 231.527 344.013 210.977 344.013"/><polygon fill="#E0AA8E" points="210.977 37.005 231.527 37.005 231.527 127.463 210.977 127.463"/><polygon fill="#FBE8DE" points="34.25 37.005 54.799 37.005 54.799 344.013 34.25 344.013"/><polygon fill="#F5CCB6" points="34.25 37.005 54.799 37.005 54.799 52.082 34.25 52.082"/><polygon fill="#EBBBA2" points="54.799 37.005 75.349 37.005 75.349 344.013 54.799 344.013"/><polygon fill="#E0AA8E" points="54.799 37.005 75.349 37.005 75.349 127.463 54.799 127.463"/><polygon fill="#FBE8DE" points="269.887 37.005 290.436 37.005 290.436 344.013 269.887 344.013"/><polygon fill="#EBBBA2" points="290.436 37.005 310.986 37.005 310.986 344.013 290.436 344.013"/><polygon fill="#F5CCB6" points="269.887 37.005 290.436 37.005 290.436 52.082 269.887 52.082"/><polygon fill="#E0AA8E" points="290.436 37.005 310.986 37.005 310.986 52.082 290.436 52.082"/><polygon fill="#D9A387" points="446.614 37.005 467.164 37.005 467.164 344.013 446.614 344.013"/><polygon fill="#EBBBA2" points="426.064 37.005 446.614 37.005 446.614 344.013 426.064 344.013"/><polygon fill="#C58E72" points="446.614 37.005 467.164 37.005 467.164 52.082 446.614 52.082"/><polygon fill="#D4A086" points="426.064 37.005 446.614 37.005 446.614 127.463 426.064 127.463"/><polygon fill="#E49A88" points="65.759 37.005 269.887 37.005 269.887 113.757 65.759 113.757"/><polygon fill="#D08775" points="65.759 37.005 269.887 37.005 269.887 65.787 65.759 65.787"/><polygon fill="#D08775" points="310.986 37.005 434.284 37.005 434.284 113.757 310.986 113.757"/><polygon fill="#BE715D" points="310.986 37.005 434.284 37.005 434.284 65.787 310.986 65.787"/><path fill="#FBE8DE" d="M12,2.27373675e-13 L316.465906,2.27373675e-13 L316.465906,37.0053706 L12,37.0053706 C5.372583,37.0053706 -5.60317944e-14,31.6327876 -5.68434189e-14,25.0053706 L-5.86197757e-14,12 C-5.94314002e-14,5.372583 5.372583,2.28591112e-13 12,2.27373675e-13 Z"/><path fill="#EBBBA2" d="M482.563602,2.27373675e-13 C489.191019,2.28591112e-13 494.563602,5.372583 494.563602,12 L494.563602,25.0053706 C494.563602,31.6327876 489.191019,37.0053706 482.563602,37.0053706 L290.436243,37.0053706 L290.436243,2.27373675e-13 L482.563602,2.27373675e-13 Z"/><polygon fill="#7FE4EC" points="211.107 75.754 254.107 75.754 254.107 94.754 211.107 94.754"/><polygon fill="#3BAFE7" points="211.107 101.754 211.107 94.754 254.107 94.754 254.107 101.754"/></g></g></svg>